<?xml version="1.0" standalone="no"?>
<!DOCTYPE svg PUBLIC "-//W3C//DTD SVG 20010904//EN"
 "http://www.w3.org/TR/2001/REC-SVG-20010904/DTD/svg10.dtd">
<svg version="1.0" xmlns="http://www.w3.org/2000/svg"
 width="1024.000000pt" height="576.000000pt" viewBox="0 0 1024.000000 576.000000"
 preserveAspectRatio="xMidYMid meet">

<g transform="translate(0.000000,576.000000) scale(0.100000,-0.100000)"
fill="#000000" stroke="none">
<path d="M3791 4398 c-107 -18 -204 -97 -241 -195 -11 -30 -18 -58 -16 -61 8
-8 526 172 523 182 -2 5 -27 22 -55 39 -59 33 -142 47 -211 35z"/>
<path d="M5180 4135 l0 -215 35 0 35 0 0 215 0 215 -35 0 -35 0 0 -215z"/>
<path d="M3996 4030 c-49 -144 -86 -263 -83 -266 13 -13 129 51 166 91 69 74
85 117 86 221 0 81 -3 96 -30 149 -16 32 -34 60 -40 62 -5 1 -50 -114 -99
-257z"/>
<path d="M3926 4227 l-88 -32 6 -49 c3 -27 9 -53 13 -57 5 -4 31 -11 58 -14
l51 -7 29 83 c15 46 30 90 33 97 6 17 0 15 -102 -21z"/>
<path d="M4313 4223 c-3 -7 -3 -57 -1 -111 5 -113 21 -151 72 -176 44 -21 73
-20 116 2 33 16 37 16 70 0 43 -22 72 -23 115 -2 51 24 65 64 65 188 l0 106
-40 0 -40 0 0 -109 c0 -122 -6 -135 -62 -129 -37 3 -34 -9 -37 158 l-1 86 -27
-2 -28 -1 -3 -106 c-3 -101 -4 -107 -29 -127 -30 -24 -52 -25 -79 -6 -16 12
-20 30 -24 127 l-5 113 -28 2 c-16 0 -31 -5 -34 -13z"/>
<path d="M4915 4224 c-105 -36 -141 -151 -76 -242 22 -32 85 -62 127 -62 32 0
86 25 109 50 17 18 16 20 -8 31 -21 10 -33 9 -62 -5 -44 -21 -77 -15 -113 22
l-27 27 125 5 c120 5 125 6 128 27 5 33 -32 109 -62 129 -40 25 -98 33 -141
18z m113 -81 l27 -28 -85 -5 c-47 -3 -89 -3 -94 -1 -5 2 5 17 23 33 42 38 92
38 129 1z"/>
<path d="M5392 4210 c-44 -27 -72 -76 -72 -128 0 -110 108 -188 205 -148 46
19 45 19 45 2 0 -10 10 -14 30 -14 l30 1 0 91 c0 110 -23 168 -80 198 -46 24
-116 23 -158 -2z m151 -71 c38 -41 36 -82 -7 -125 -39 -39 -67 -42 -112 -15
-64 39 -61 127 5 162 43 23 77 16 114 -22z"/>
<path d="M5762 4210 c-48 -29 -62 -72 -62 -190 l0 -100 30 0 30 0 0 105 c0 94
2 106 22 125 32 29 92 27 123 -5 23 -22 25 -31 25 -125 0 -99 0 -100 24 -100
22 0 26 6 32 46 9 64 -2 172 -21 201 -41 61 -139 82 -203 43z"/>
<path d="M6119 4207 c-115 -77 -76 -259 60 -282 54 -9 123 22 151 67 11 18 20
36 20 41 0 13 -59 8 -67 -6 -14 -23 -57 -47 -84 -47 -16 0 -40 12 -58 29 -55
51 -36 134 35 162 29 11 84 -9 105 -38 16 -21 69 -27 69 -7 0 19 -48 73 -81
89 -43 23 -110 19 -150 -8z"/>
<path d="M6495 4211 c-53 -33 -69 -58 -72 -119 -5 -75 18 -119 77 -149 56 -29
86 -29 140 0 53 28 60 44 25 57 -20 8 -32 6 -48 -5 -32 -22 -72 -18 -106 11
-17 14 -31 30 -31 35 0 5 26 9 59 9 32 0 86 3 120 6 60 7 61 7 61 38 0 41 -32
91 -72 116 -42 26 -113 26 -153 1z m142 -67 c14 -14 24 -27 22 -28 -2 -2 -43
-7 -91 -11 -97 -8 -106 -2 -63 40 34 35 96 35 132 -1z"/>
<path d="M3730 4159 c-73 -26 -79 -35 -28 -43 24 -4 58 -9 75 -12 33 -6 33 -6
27 27 -4 19 -9 37 -13 40 -3 4 -31 -2 -61 -12z"/>
<path d="M3524 4061 c23 -172 137 -289 292 -299 l61 -4 -19 93 c-40 211 -35
198 -76 208 -20 6 -77 17 -127 26 -49 9 -101 19 -114 22 -24 6 -24 5 -17 -46z
m256 -58 c0 -16 -34 -129 -41 -137 -4 -5 -13 10 -19 32 -11 34 -18 41 -52 51
-22 7 -38 15 -35 17 4 5 124 42 140 43 4 1 7 -2 7 -6z"/>
<path d="M3870 4018 c1 -43 27 -143 33 -128 14 32 47 133 45 135 -2 1 -20 5
-40 9 -35 6 -38 5 -38 -16z"/>
<path d="M3595 3216 c-9 -14 -15 -39 -13 -58 2 -28 7 -33 28 -33 31 0 40 33
14 52 -14 10 -15 16 -6 25 14 14 16 38 2 38 -5 0 -17 -11 -25 -24z"/>
<path d="M3692 3218 c-11 -23 -15 -48 -13 -81 1 -14 8 -18 28 -15 33 4 44 36
18 54 -13 10 -14 17 -6 33 14 26 14 31 -2 31 -8 0 -19 -10 -25 -22z"/>
<path d="M3590 2950 c0 -56 3 -70 15 -70 11 0 15 11 16 38 l0 37 16 -37 c8
-21 19 -38 25 -38 5 0 17 17 26 38 l17 37 3 -38 c6 -65 27 -38 27 34 0 56 -2
64 -19 64 -13 0 -24 -14 -36 -45 l-17 -44 -21 47 c-32 72 -52 63 -52 -23z"/>
<path d="M4165 3011 c-6 -11 9 -23 19 -14 9 9 7 23 -3 23 -6 0 -12 -4 -16 -9z"/>
<path d="M4098 2992 c-3 -9 -2 -38 1 -62 5 -37 10 -46 29 -48 12 -2 22 1 22 7
0 6 -4 11 -10 11 -14 0 -13 57 2 62 7 3 5 12 -8 26 -22 27 -30 28 -36 4z"/>
<path d="M3760 2959 c-26 -47 25 -100 69 -72 20 13 26 60 10 79 -18 22 -66 18
-79 -7z m58 -26 c-4 -33 -24 -41 -33 -14 -8 25 1 41 21 41 11 0 14 -8 12 -27z"/>
<path d="M3870 2929 c0 -36 4 -49 14 -49 10 0 16 13 18 37 4 52 28 56 28 4 0
-30 4 -41 16 -41 12 0 14 10 12 48 l-3 47 -42 2 -43 2 0 -50z"/>
<path d="M3992 2968 c-17 -17 -15 -63 2 -77 19 -16 68 -10 74 8 3 10 -2 12
-21 7 -14 -3 -29 -2 -32 4 -4 6 6 10 24 10 36 0 46 13 31 40 -12 23 -59 27
-78 8z m58 -18 c0 -5 -9 -10 -20 -10 -11 0 -20 5 -20 10 0 6 9 10 20 10 11 0
20 -4 20 -10z"/>
<path d="M4167 2973 c-4 -3 -7 -26 -7 -50 0 -32 4 -43 15 -43 11 0 15 12 15
50 0 46 -7 60 -23 43z"/>
<path d="M4220 2970 c0 -5 10 -10 21 -10 21 0 21 -1 -5 -34 -14 -19 -26 -37
-26 -40 0 -3 20 -6 45 -6 25 0 45 5 45 10 0 6 -9 10 -20 10 -25 0 -25 8 0 40
28 35 25 40 -20 40 -22 0 -40 -4 -40 -10z"/>
<path d="M4318 2955 c-17 -38 3 -75 41 -75 16 0 35 8 42 17 13 15 11 16 -18
10 -18 -3 -35 -2 -38 3 -4 6 7 10 25 10 34 0 49 22 30 45 -21 25 -69 19 -82
-10z m62 -5 c0 -5 -9 -10 -21 -10 -11 0 -17 5 -14 10 3 6 13 10 21 10 8 0 14
-4 14 -10z"/>
<path d="M4721 2777 c2 -1 15 -11 29 -22 l25 -20 -19 23 c-11 12 -24 22 -29
22 -6 0 -8 -1 -6 -3z"/>
<path d="M4780 2726 c0 -2 8 -10 18 -17 15 -13 16 -12 3 4 -13 16 -21 21 -21
13z"/>
<path d="M4122 2698 c-16 -16 -15 -28 4 -49 12 -13 13 -22 5 -38 -15 -27 7
-41 25 -16 43 58 12 149 -34 103z"/>
<path d="M4222 2698 c-17 -17 -15 -45 3 -52 12 -4 13 -10 3 -31 -15 -34 -1
-45 23 -16 24 29 26 96 3 105 -20 8 -18 8 -32 -6z"/>
<path d="M4648 2673 c6 -2 18 -2 25 0 6 3 1 5 -13 5 -14 0 -19 -2 -12 -5z"/>
<path d="M5586 2615 c-9 -26 -7 -32 5 -12 6 10 9 21 6 23 -2 3 -7 -2 -11 -11z"/>
<path d="M4324 2594 c3 -9 6 -18 6 -20 0 -3 5 -2 10 1 6 4 19 1 28 -6 9 -8 6
-1 -7 14 -27 30 -47 36 -37 11z"/>
<path d="M5412 2578 c-5 -7 -12 -24 -14 -38 -2 -17 -10 -26 -26 -28 -31 -5
-50 -38 -73 -128 -23 -91 -24 -118 -5 -133 11 -9 18 -6 35 15 12 15 21 31 21
36 0 5 5 6 10 3 6 -3 10 -2 10 4 0 5 -4 13 -10 16 -15 10 -12 52 6 70 24 23
45 2 37 -37 -5 -26 -3 -30 13 -26 13 2 20 13 22 36 3 32 15 41 27 21 12 -19
52 -28 90 -19 51 11 63 5 88 -49 29 -60 63 -74 115 -46 50 27 63 65 37 113
-16 30 -28 39 -64 48 -34 8 -46 16 -56 41 -15 35 -49 51 -70 33 -12 -10 -15
-9 -15 2 0 8 -11 27 -25 42 -28 30 -78 35 -107 9 -17 -15 -18 -15 -18 5 0 24
-12 28 -28 10z"/>
<path d="M5965 2560 c10 -11 20 -20 23 -20 3 0 -3 9 -13 20 -10 11 -20 20 -23
20 -3 0 3 -9 13 -20z"/>
<path d="M4358 2545 c17 -34 103 -105 127 -105 5 0 -6 9 -25 21 -19 11 -52 39
-73 62 -22 23 -34 33 -29 22z"/>
<path d="M3290 2511 c0 -6 4 -13 10 -16 6 -3 7 1 4 9 -7 18 -14 21 -14 7z"/>
<path d="M4300 2446 c0 -12 45 -76 53 -76 5 0 0 14 -10 31 -18 31 -43 57 -43
45z"/>
<path d="M4123 2414 c-7 -19 20 -74 51 -103 20 -19 26 -20 67 -8 46 14 51 26
28 73 -24 47 -131 75 -146 38z"/>
<path d="M3395 2410 c3 -5 8 -10 11 -10 2 0 4 5 4 10 0 6 -5 10 -11 10 -5 0
-7 -4 -4 -10z"/>
<path d="M3432 2388 c-16 -16 -15 -25 2 -31 21 -8 40 17 23 31 -10 9 -17 8
-25 0z"/>
<path d="M3880 2305 c19 -19 36 -35 39 -35 3 0 -10 16 -29 35 -19 19 -36 35
-39 35 -3 0 10 -16 29 -35z"/>
<path d="M3939 2293 c-13 -16 -12 -17 4 -4 16 13 21 21 13 21 -2 0 -10 -8 -17
-17z"/>
<path d="M4846 2189 c-9 -66 8 -167 30 -176 22 -8 23 -3 8 62 -7 33 -17 85
-22 115 l-8 55 -8 -56z"/>
<path d="M4634 2187 c-15 -13 -25 -28 -23 -33 2 -5 19 6 37 24 39 37 27 44
-14 9z"/>
<path d="M4109 2033 c-13 -16 -12 -17 4 -4 16 13 21 21 13 21 -2 0 -10 -8 -17
-17z"/>
<path d="M4206 2015 c-6 -17 16 -31 33 -21 13 9 2 36 -14 36 -7 0 -16 -7 -19
-15z"/>
<path d="M4523 1813 c103 -2 271 -2 375 0 103 1 18 2 -188 2 -206 0 -291 -1
-187 -2z"/>
<path d="M5445 1750 c-8 -13 19 -46 50 -63 17 -8 18 -8 9 4 -6 8 -20 27 -31
42 -13 17 -24 24 -28 17z"/>
<path d="M5829 1660 c-13 -10 -19 -19 -12 -20 6 0 15 5 18 11 4 6 17 14 29 19
15 6 16 9 5 9 -9 1 -27 -8 -40 -19z"/>
<path d="M3645 1630 c21 -22 41 -40 44 -40 3 0 -13 18 -34 40 -21 22 -41 40
-44 40 -3 0 13 -18 34 -40z"/>
<path d="M6153 1624 c3 -4 24 -6 46 -6 22 0 43 -3 46 -9 9 -13 -45 -31 -77
-26 -16 2 -28 -1 -28 -6 0 -15 90 -1 107 16 24 24 6 37 -49 37 -28 0 -49 -3
-45 -6z"/>
<path d="M6291 1606 c7 -15 15 -23 17 -16 3 7 -3 19 -13 28 -15 16 -16 15 -4
-12z"/>
<path d="M3955 1540 c27 -27 51 -50 54 -50 3 0 -17 23 -44 50 -27 28 -51 50
-54 50 -3 0 17 -22 44 -50z"/>
<path d="M2867 1574 c-15 -3 -35 -16 -44 -30 -14 -23 -14 -26 1 -43 9 -9 16
-22 16 -28 0 -18 -27 -34 -45 -27 -14 6 -16 16 -13 54 5 51 -4 56 -45 25 -16
-11 -16 -16 -5 -34 11 -17 10 -23 -4 -37 -12 -13 -20 -14 -37 -5 -19 10 -22 8
-32 -16 -18 -46 -23 -167 -9 -235 48 -247 252 -349 502 -251 44 18 58 48 31
68 -14 11 -16 18 -7 32 6 10 20 18 30 18 15 0 20 -9 25 -40 l5 -40 52 53 c68
71 94 139 94 249 1 139 -54 221 -177 264 -54 19 -275 34 -338 23z m180 -230
c-9 -9 -28 6 -21 18 4 6 10 6 17 -1 6 -6 8 -13 4 -17z m-168 -2 c5 -10 6 -24
1 -32 -5 -7 -4 -21 2 -30 20 -32 3 -50 -47 -50 l-45 0 0 65 0 65 40 0 c28 0
42 -5 49 -18z m219 -47 c-4 -87 -22 -88 -26 -2 -2 56 0 67 13 67 13 0 15 -11
13 -65z m120 -1 l-3 -67 -33 -2 c-19 -2 -39 4 -47 12 -33 32 -4 100 36 88 14
-5 19 -1 19 14 0 12 6 21 15 21 13 0 15 -12 13 -66z m-280 -7 c2 -23 8 -37 17
-37 9 0 15 14 17 37 5 58 28 54 28 -5 0 -48 -1 -50 -32 -55 -45 -6 -58 7 -58
60 0 55 23 55 28 0z m110 -7 c-4 -60 -22 -71 -26 -16 -4 43 2 66 18 66 7 0 10
-19 8 -50z m81 -229 c17 -30 -17 -120 -40 -106 -4 3 -3 17 3 31 10 22 9 27 -5
35 -20 12 -22 30 -5 47 17 17 36 15 47 -7z"/>
<path d="M2820 1320 c0 -15 5 -20 18 -18 9 2 17 10 17 18 0 8 -8 16 -17 18
-13 2 -18 -3 -18 -18z"/>
<path d="M2820 1265 c0 -8 9 -15 20 -15 11 0 20 7 20 15 0 8 -9 15 -20 15 -11
0 -20 -7 -20 -15z"/>
<path d="M3150 1275 c0 -20 4 -26 18 -23 9 2 17 12 17 23 0 11 -8 21 -17 23
-14 3 -18 -3 -18 -23z"/>
<path d="M4704 1551 c7 -11 46 -35 46 -28 0 3 -12 12 -26 22 -15 9 -23 12 -20
6z"/>
<path d="M6585 1519 c-4 -6 -5 -12 -2 -15 2 -3 7 2 10 11 7 17 1 20 -8 4z"/>
<path d="M4220 1510 c0 -13 68 -121 132 -213 45 -63 48 -71 48 -129 0 -81 6
-71 13 21 4 53 11 82 26 102 12 16 17 29 12 29 -6 0 -19 -16 -29 -36 l-19 -37
-55 79 c-31 44 -70 105 -88 137 -32 57 -40 66 -40 47z"/>
<path d="M4819 1473 c124 -92 288 -232 282 -239 -12 -14 -75 -130 -66 -122 4
4 31 47 60 95 l53 88 -66 31 c-37 17 -103 53 -147 80 -44 28 -93 58 -110 68
-29 17 -29 17 -6 -1z"/>
<path d="M6566 1473 c-6 -14 -5 -15 5 -6 7 7 10 15 7 18 -3 3 -9 -2 -12 -12z"/>
<path d="M6193 1392 c-59 -26 -103 -52 -103 -59 0 -8 50 -38 116 -69 116 -54
149 -65 126 -42 -8 8 -12 48 -12 115 0 76 -3 103 -12 102 -7 0 -59 -21 -115
-47z"/>
<path d="M5747 1379 c37 -24 62 -59 79 -114 7 -22 13 -31 13 -20 1 51 -75 155
-112 155 -7 0 2 -9 20 -21z"/>
<path d="M6685 1360 c-3 -6 1 -7 9 -4 18 7 21 14 7 14 -6 0 -13 -4 -16 -10z"/>
<path d="M4744 1348 c-5 -7 -20 -34 -33 -59 l-24 -46 -49 33 c-54 37 -117 58
-151 51 -19 -4 -18 -4 4 -6 63 -3 185 -66 191 -99 2 -9 20 15 42 56 21 41 36
75 33 78 -2 2 -8 -1 -13 -8z"/>
<path d="M5996 1231 c-9 -17 -19 -52 -21 -78 l-5 -48 15 59 c8 33 20 65 27 73
6 7 8 16 5 19 -3 3 -13 -8 -21 -25z"/>
<path d="M5777 1196 c12 -76 -27 -129 -103 -140 -60 -8 -100 6 -184 61 -49 33
-56 36 -30 13 74 -65 119 -85 192 -83 39 1 81 8 102 18 34 17 96 71 96 86 0 4
-18 -11 -40 -34 -42 -42 -64 -45 -36 -5 17 24 22 103 7 113 -6 3 -8 -9 -4 -29z"/>
<path d="M4160 1213 c0 -14 99 -73 173 -103 70 -28 72 -30 80 -70 11 -54 17
-48 10 11 -5 44 -7 47 -47 59 -44 13 -131 56 -183 91 -18 11 -33 17 -33 12z"/>
<path d="M5580 1185 c13 -14 26 -25 28 -25 3 0 -5 11 -18 25 -13 14 -26 25
-28 25 -3 0 5 -11 18 -25z"/>
<path d="M4650 1160 c-6 -11 -8 -20 -6 -20 3 0 10 9 16 20 6 11 8 20 6 20 -3
0 -10 -9 -16 -20z"/>
<path d="M5611 1134 c0 -11 3 -14 6 -6 3 7 2 16 -1 19 -3 4 -6 -2 -5 -13z"/>
<path d="M4620 1093 c-23 -58 -23 -61 0 -20 12 21 20 43 18 48 -2 6 -10 -7
-18 -28z"/>
<path d="M5995 1101 c-6 -19 -8 -19 -21 -6 -23 23 -26 18 -8 -10 21 -32 30
-32 38 1 8 32 1 44 -9 15z"/>
<path d="M5596 1093 c-6 -14 -5 -15 5 -6 7 7 10 15 7 18 -3 3 -9 -2 -12 -12z"/>
<path d="M4995 1053 c-58 -100 -68 -120 -48 -94 24 32 85 141 80 141 -3 0 -17
-21 -32 -47z"/>
<path d="M4506 1075 c-3 -9 1 -18 10 -22 19 -7 39 11 30 26 -10 16 -33 13 -40
-4z"/>
<path d="M6086 1068 c-20 -28 -21 -92 -2 -107 11 -9 20 -10 35 -1 24 12 28 48
6 56 -17 7 -20 40 -5 49 15 9 12 25 -4 25 -8 0 -22 -10 -30 -22z"/>
<path d="M6193 1071 c-22 -35 -26 -87 -8 -104 20 -21 29 -21 49 -1 21 20 20
30 -3 53 -12 12 -16 23 -10 32 13 20 11 39 -4 39 -7 0 -17 -8 -24 -19z"/>
<path d="M4570 963 c-12 -38 -23 -99 -24 -138 -2 -38 -2 -56 0 -40 14 102 27
165 37 179 10 13 18 8 56 -37 51 -61 137 -152 212 -222 67 -63 61 -55 -66 80
-137 146 -194 216 -188 232 3 7 3 13 0 13 -3 0 -15 -30 -27 -67z"/>
<path d="M4431 980 c0 -8 4 -22 9 -30 12 -18 12 -2 0 25 -6 13 -9 15 -9 5z"/>
<path d="M4378 926 c-45 -14 -88 -68 -88 -110 0 -16 -7 -56 -16 -88 -13 -44
-14 -62 -6 -70 7 -7 13 -10 15 -7 90 126 158 240 155 259 -4 29 -13 31 -60 16z"/>
<path d="M3100 764 c0 -31 53 -114 85 -134 38 -24 76 -25 114 -5 31 16 43 37
35 60 -13 34 -61 2 -51 -35 4 -15 -1 -22 -19 -26 -50 -13 -110 30 -139 100
-15 36 -15 38 1 32 14 -5 15 -4 4 9 -16 20 -30 19 -30 -1z m223 -80 c8 -9 -11
-44 -23 -44 -6 0 -10 8 -10 18 0 27 18 41 33 26z"/>
<path d="M6180 690 c0 -54 3 -70 14 -70 8 0 16 10 18 23 2 16 11 23 31 25 38
5 53 36 32 68 -12 19 -24 24 -55 24 l-40 0 0 -70z m68 23 c-2 -10 -10 -18 -18
-18 -8 0 -16 8 -18 18 -2 12 3 17 18 17 15 0 20 -5 18 -17z"/>
<path d="M6483 730 c-8 -12 -9 -21 -3 -25 6 -3 10 -21 10 -40 0 -21 6 -35 16
-39 25 -10 34 -7 34 9 0 8 -4 15 -10 15 -5 0 -10 11 -10 25 0 14 5 25 10 25
15 0 12 19 -4 36 -19 19 -29 18 -43 -6z"/>
<path d="M6773 730 c-8 -12 -9 -21 -3 -25 6 -3 10 -22 10 -41 0 -22 6 -37 16
-41 19 -7 41 11 25 21 -14 9 -14 49 0 63 9 9 8 16 -4 27 -20 21 -30 20 -44 -4z"/>
<path d="M4542 705 c0 -16 2 -22 5 -12 2 9 2 23 0 30 -3 6 -5 -1 -5 -18z"/>
<path d="M6300 674 c0 -41 4 -54 15 -54 11 0 15 11 15 35 0 22 6 38 15 41 26
10 16 31 -15 32 -30 1 -30 0 -30 -54z"/>
<path d="M6388 719 c-21 -12 -24 -69 -6 -87 29 -29 88 1 88 45 0 23 -29 53
-51 53 -8 0 -22 -5 -31 -11z m45 -31 c6 -19 -3 -38 -19 -38 -8 0 -14 10 -14
25 0 26 25 35 33 13z"/>
<path d="M6566 714 c-30 -30 -10 -94 29 -94 24 0 45 12 45 26 0 10 -8 12 -32
7 -22 -4 -29 -3 -24 5 4 7 20 12 37 12 33 0 38 19 11 43 -23 21 -46 22 -66 1z
m47 -21 c-7 -2 -19 -2 -25 0 -7 3 -2 5 12 5 14 0 19 -2 13 -5z"/>
<path d="M6676 717 c-12 -9 -17 -23 -14 -47 2 -27 9 -37 31 -44 23 -8 31 -6
50 13 l22 22 -35 -3 c-29 -2 -35 0 -35 17 0 17 6 19 35 17 35 -4 35 -4 16 17
-22 24 -44 27 -70 8z"/>
<path d="M5566 684 c-5 -14 -4 -15 9 -4 17 14 19 20 6 20 -5 0 -12 -7 -15 -16z"/>
<path d="M3306 598 c6 -17 63 -58 80 -58 5 0 -7 10 -26 21 -19 12 -40 29 -47
38 -12 15 -13 14 -7 -1z"/>
<path d="M3490 544 c-24 -9 -29 -13 -14 -13 11 -1 29 6 40 14 22 17 20 17 -26
-1z"/>
<path d="M3408 533 c6 -2 18 -2 25 0 6 3 1 5 -13 5 -14 0 -19 -2 -12 -5z"/>
<path d="M6663 483 c-18 -7 -16 -48 1 -63 12 -9 13 -17 4 -36 -8 -18 -8 -28 0
-36 15 -15 52 47 52 88 0 44 -22 62 -57 47z"/>
<path d="M6760 471 c-11 -21 -4 -51 12 -51 6 0 8 -14 4 -35 -13 -66 35 -26 49
41 10 52 -42 88 -65 45z"/>
<path d="M7160 413 l-55 -58 58 55 c31 30 57 56 57 57 0 8 -10 -1 -60 -54z"/>
<path d="M4913 334 c-26 -36 -47 -74 -45 -84 2 -11 -4 -49 -14 -86 -22 -88 -8
-102 37 -37 145 210 146 213 106 251 -13 12 -26 22 -29 22 -4 0 -28 -30 -55
-66z"/>
</g>
</svg>
